<?xml version="1.0" encoding="utf-8"?>
<!-- Generator: Adobe Illustrator 24.2.3, SVG Export Plug-In . SVG Version: 6.00 Build 0)  -->
<svg version="1.1" id="Layer_1" xmlns="http://www.w3.org/2000/svg" xmlns:xlink="http://www.w3.org/1999/xlink" x="0px" y="0px"
	 viewBox="0 0 112 32" style="enable-background:new 0 0 112 32;" xml:space="preserve">
<style type="text/css">
	.st0{fill:#FFFFFF;}
	.st1{fill:#E8E8E8;}
	.st2{font-family:'Calibri-Bold';}
	.st3{font-size:17.6475px;}
	.st4{fill:#009FFF;}
	.st5{font-size:2.4843px;}
</style>
<g>
	<g>
		<path class="st0" d="M7.5,9.19v20.59c0,0.04-0.03,0.07-0.07,0.07H0.68c-0.04,0-0.07-0.03-0.07-0.07V9.19
			c0-0.04,0.03-0.07,0.07-0.07h6.75C7.47,9.12,7.5,9.15,7.5,9.19z"/>
	</g>
	<g>
		<path class="st0" d="M28.29,15.98c0,2.55-0.66,4.91-1.85,6.94c-1.22,2.1-2.99,3.84-5.09,5.06c-2.03,1.18-4.39,1.85-6.9,1.85v0.04
			H7.59c-0.04,0-0.07-0.03-0.07-0.07v-6.75c0-0.04,0.03-0.07,0.07-0.07h6.86c0.07,0,0.11,0,0.18-0.04c3.73-0.07,6.72-3.14,6.72-6.86
			v0c0-3.82-3.12-6.94-6.94-6.94H0.69c-0.04,0-0.07-0.03-0.07-0.07V2.25c0-0.04,0.03-0.07,0.07-0.07h13.4
			c0.11-0.04,0.26-0.04,0.37-0.04h0.55c2.32,0.11,4.46,0.78,6.35,1.85c2.1,1.22,3.87,2.99,5.09,5.09
			C27.63,11.11,28.29,13.47,28.29,15.98z"/>
	</g>
</g>
<g>
	<g>
		<path class="st1" d="M7.5,9.19v20.59c0,0.04-0.03,0.07-0.07,0.07h0c-3.77,0-6.83-3.06-6.83-6.83v-7.09c0-3.77,3.06-6.83,6.83-6.83
			h0C7.47,9.12,7.5,9.15,7.5,9.19z"/>
	</g>
	<g>
		<path class="st1" d="M28.29,15.98c0,2.55-0.66,4.91-1.85,6.94c-1.22,2.1-2.99,3.84-5.09,5.06c-2.03,1.18-4.39,1.85-6.9,1.85v0.04
			H7.59c-0.04,0-0.07-0.03-0.07-0.07v0c0-3.77,3.06-6.83,6.83-6.83h0.11c0.07,0,0.11,0,0.18-0.04c3.73-0.07,6.72-3.14,6.72-6.86v0
			c0-3.82-3.12-6.94-6.94-6.94H0.69c-0.04,0-0.07-0.03-0.07-0.07v0c0-3.79,3.07-6.86,6.86-6.86h6.61c0.11-0.04,0.26-0.04,0.37-0.04
			h0.55c2.32,0.11,4.46,0.78,6.35,1.85c2.1,1.22,3.87,2.99,5.09,5.09C27.63,11.11,28.29,13.47,28.29,15.98z"/>
	</g>
</g>
<text transform="matrix(1 0 0 1 29.6211 21.2616)" class="st0 st2 st3">DevRohan</text>
<path class="st4" d="M108.3,9.12H97.27c-1.33,0-2.42-1.08-2.42-2.42v0c0-1.33,1.08-2.42,2.42-2.42h11.02c1.33,0,2.42,1.08,2.42,2.42
	v0C110.71,8.04,109.63,9.12,108.3,9.12z"/>
<text transform="matrix(1.3561 0 0 1 96.8574 7.4491)" class="st0 st2 st5">Portfolio</text>
</svg>
